<svg width="36" height="37" viewBox="0 0 36 37" fill="none" xmlns="http://www.w3.org/2000/svg">
<g clip-path="url(#clip0_8244_25338)">
<path d="M11.9105 30C10.8846 30 10.0137 29.6374 9.29771 28.9122C8.58175 28.187 8.22377 27.3065 8.22377 26.2707H6V12.4011C6 11.7301 6.22997 11.1622 6.6899 10.6973C7.14983 10.2324 7.7116 10 8.37522 10H26.2672V15.0575H29.7545L34 20.8047V26.2707H31.6248C31.6248 27.3065 31.2657 28.187 30.5476 28.9122C29.8296 29.6374 28.9578 30 27.9322 30C26.9065 30 26.0356 29.6374 25.3194 28.9122C24.6035 28.187 24.2455 27.3065 24.2455 26.2707H15.6027C15.6027 27.3094 15.2438 28.1905 14.5258 28.9142C13.8079 29.6381 12.9361 30 11.9105 30ZM11.9134 28.0077C12.3952 28.0077 12.8021 27.8399 13.1339 27.5043C13.4657 27.1689 13.6316 26.7577 13.6316 26.2707C13.6316 25.7837 13.4657 25.3724 13.1339 25.0368C12.8021 24.7014 12.3952 24.5337 11.9134 24.5337C11.4316 24.5337 11.0246 24.7014 10.6926 25.0368C10.3608 25.3724 10.1949 25.7837 10.1949 26.2707C10.1949 26.7577 10.3608 27.1689 10.6926 27.5043C11.0246 27.8399 11.4316 28.0077 11.9134 28.0077ZM7.97114 24.2784H8.92123C9.20091 23.7863 9.60477 23.3737 10.1328 23.0408C10.6611 22.7079 11.2546 22.5414 11.9134 22.5414C12.5551 22.5414 13.1443 22.7057 13.6809 23.0345C14.2175 23.3632 14.6256 23.7778 14.9053 24.2784H24.2961V11.9923H8.37522C8.27425 11.9923 8.18161 12.0349 8.09729 12.1202C8.01319 12.2052 7.97114 12.2988 7.97114 12.4011V24.2784ZM27.9351 28.0077C28.417 28.0077 28.8238 27.8399 29.1556 27.5043C29.4876 27.1689 29.6536 26.7577 29.6536 26.2707C29.6536 25.7837 29.4876 25.3724 29.1556 25.0368C28.8238 24.7014 28.417 24.5337 27.9351 24.5337C27.4533 24.5337 27.0464 24.7014 26.7143 25.0368C26.3825 25.3724 26.2166 25.7837 26.2166 26.2707C26.2166 26.7577 26.3825 27.1689 26.7143 27.5043C27.0464 27.8399 27.4533 28.0077 27.9351 28.0077ZM26.2672 21.6219H32.1553L28.7436 17.0499H26.2672V21.6219Z" fill="#595959"/>
<rect x="2" y="6" width="17" height="14" fill="white"/>
<path d="M3.35 11.75V11.9H3.5H9.1V17.5V17.65H9.25H10.75H10.9V17.5V11.9H16.5H16.65V11.75V10.25V10.1H16.5H10.9V4.5V4.35H10.75H9.25H9.1V4.5V10.1H3.5H3.35V10.25V11.75Z" fill="#595959" stroke="#595959" stroke-width="0.3"/>
</g>
<defs>
<clipPath id="clip0_8244_25338">
<rect width="36" height="36" fill="white" transform="translate(0 0.165161)"/>
</clipPath>
</defs>
</svg>
